<svg width="167" height="14" viewBox="0 0 167 14" fill="none" xmlns="http://www.w3.org/2000/svg">
<path d="M4.14 13H6.516V2.56H10.512V0.399999C6.858 0.399999 3.78 0.399999 0.144 0.399999V2.56H4.14V13ZM9.93094 4.126V13H12.1269V8.32C12.1269 6.682 13.1889 6.07 14.3409 6.07C15.0609 6.07 15.4749 6.268 15.9249 6.646L16.9149 4.738C16.4289 4.252 15.5469 3.892 14.6289 3.892C13.7289 3.892 12.8109 4.054 12.1269 5.152L11.9649 4.126H9.93094ZM21.9116 3.946C19.0856 3.946 17.3216 6.034 17.3216 8.572C17.3216 11.128 19.0496 13.198 21.9296 13.198C24.8096 13.198 26.5556 11.128 26.5556 8.572C26.5556 6.034 24.7376 3.946 21.9116 3.946ZM21.9296 5.944C23.4056 5.944 24.3416 7.24 24.3416 8.572C24.3416 9.922 23.5316 11.182 21.9296 11.182C20.3276 11.182 19.5176 9.922 19.5176 8.572C19.5176 7.24 20.3456 5.944 21.9296 5.944ZM28.1256 4.126V8.788C28.1256 11.542 29.6736 13.144 31.7976 13.144C33.0396 13.144 33.8856 12.712 34.8036 11.812L34.9476 13.018H36.9096V4.126H34.7316V8.662C34.7316 10.012 33.8136 11.146 32.4636 11.146C31.0596 11.146 30.3216 10.12 30.3216 8.77V4.126H28.1256ZM45.651 4.108L44.427 7.078L43.077 10.786L41.709 7.042L40.485 4.108H38.091L41.889 13.036H44.265L48.045 4.108H45.651ZM57.9146 9.346C58.2566 5.692 56.4026 3.856 53.4326 3.856C50.5526 3.856 48.7166 5.8 48.7166 8.5C48.7166 11.344 50.5346 13.234 53.5946 13.234C54.9446 13.234 56.4746 12.766 57.4106 11.794L56.0066 10.408C55.5026 10.93 54.4406 11.236 53.6306 11.236C52.0826 11.236 51.1286 10.444 50.9846 9.346H57.9146ZM51.0206 7.528C51.3446 6.376 52.3166 5.8 53.5046 5.8C54.7646 5.8 55.6646 6.376 55.8086 7.528H51.0206ZM59.6067 4.126V13H61.8027V8.32C61.8027 6.682 62.8647 6.07 64.0167 6.07C64.7367 6.07 65.1507 6.268 65.6007 6.646L66.5907 4.738C66.1047 4.252 65.2227 3.892 64.3047 3.892C63.4047 3.892 62.4867 4.054 61.8027 5.152L61.6407 4.126H59.6067ZM71.1041 4.126V8.788C71.1041 11.542 72.6521 13.144 74.7761 13.144C76.0181 13.144 76.8641 12.712 77.7821 11.812L77.9261 13.018H79.8881V4.126H77.7101V8.662C77.7101 10.012 76.7921 11.146 75.4421 11.146C74.0381 11.146 73.3001 10.12 73.3001 8.77V4.126H71.1041ZM90.5555 13V8.338C90.5555 5.548 88.8815 3.982 86.7935 3.982C85.6775 3.982 84.7775 4.432 83.8775 5.314L83.7335 4.108H81.7715V13H83.9495V8.464C83.9495 7.114 84.8675 5.98 86.2175 5.98C87.6215 5.98 88.3595 7.006 88.3595 8.356V13H90.5555ZM104.181 13V8.248C104.181 7.078 104.919 6.052 106.107 6.052C107.295 6.052 107.781 7.042 107.781 8.212V13H109.977V8.212C109.977 5.548 108.735 4 106.215 4C105.063 4 104.037 4.36 103.245 5.62C102.741 4.396 101.679 3.964 100.617 3.964C99.7713 3.964 98.7453 4.288 98.2773 5.188L98.1153 4.108H96.0813V13H98.2773V8.248C98.2773 7.078 98.9793 6.016 100.167 6.016C101.373 6.016 101.985 7.078 101.985 8.248V13H104.181ZM121.02 9.346H114.09C114.234 10.444 115.188 11.236 116.736 11.236C117.546 11.236 118.608 10.93 119.112 10.408L120.516 11.794C119.58 12.766 118.05 13.234 116.7 13.234C113.64 13.234 111.822 11.344 111.822 8.5C111.822 5.8 113.658 3.856 116.538 3.856C119.508 3.856 121.362 5.692 121.02 9.346ZM114.126 7.528H118.914C118.77 6.376 117.87 5.8 116.61 5.8C115.422 5.8 114.45 6.376 114.126 7.528ZM119.13 0.129999H116.538L115.206 2.578V2.686H117.15L119.13 0.219999V0.129999ZM127.014 5.962C128.4 5.962 129.588 7.006 129.588 8.554C129.588 10.156 128.4 11.164 127.014 11.164C125.61 11.164 124.494 10.102 124.494 8.554C124.494 6.952 125.61 5.962 127.014 5.962ZM129.732 0.417999V5.332C129.21 4.414 127.752 3.91 126.816 3.91C124.224 3.91 122.298 5.494 122.298 8.554C122.298 11.47 124.26 13.198 126.87 13.198C127.95 13.198 129.048 12.838 129.732 11.776L129.876 13H131.928V0.417999H129.732ZM142.835 9.346C143.177 5.692 141.323 3.856 138.353 3.856C135.473 3.856 133.637 5.8 133.637 8.5C133.637 11.344 135.455 13.234 138.515 13.234C139.865 13.234 141.395 12.766 142.331 11.794L140.927 10.408C140.423 10.93 139.361 11.236 138.551 11.236C137.003 11.236 136.049 10.444 135.905 9.346H142.835ZM135.941 7.528C136.265 6.376 137.237 5.8 138.425 5.8C139.685 5.8 140.585 6.376 140.729 7.528H135.941ZM150.665 10.426C150.125 10.966 149.423 11.164 148.721 11.164C147.353 11.164 146.201 10.264 146.201 8.572C146.201 7.024 147.281 5.944 148.757 5.944C149.369 5.944 150.017 6.178 150.539 6.646L151.925 5.188C150.953 4.234 149.981 3.874 148.721 3.874C146.147 3.874 144.005 5.422 144.005 8.572C144.005 11.722 146.147 13.27 148.721 13.27C150.035 13.27 151.115 12.874 152.141 11.866L150.665 10.426ZM155.301 4.09V13H153.105V4.09H155.301ZM152.907 1.624C152.907 3.334 155.499 3.334 155.499 1.624C155.499 -0.086001 152.907 -0.086001 152.907 1.624ZM166.018 13V8.338C166.018 5.548 164.344 3.982 162.256 3.982C161.14 3.982 160.24 4.432 159.34 5.314L159.196 4.108H157.234V13H159.412V8.464C159.412 7.114 160.33 5.98 161.68 5.98C163.084 5.98 163.822 7.006 163.822 8.356V13H166.018Z" fill="#403F3F"/>
</svg>
