<svg width="278" height="29" viewBox="0 0 278 29" fill="none" xmlns="http://www.w3.org/2000/svg">
<path d="M3.682 10H4.438V0.886H7.98V0.213999H0.14V0.886H3.682V10ZM7.83836 3.084V10H8.52436V5.968C8.52436 4.708 9.51836 3.672 10.8064 3.658C11.2124 3.658 11.6184 3.756 11.9824 3.98L12.2904 3.42C11.8284 3.14 11.3244 3 10.8064 3.014C9.92436 3.014 8.94436 3.378 8.51036 4.316L8.48236 3.084H7.83836ZM16.5128 10.098C18.4588 10.098 20.0268 8.754 20.0268 6.556C20.0268 4.358 18.4588 2.958 16.5128 2.958C14.5668 2.958 12.9988 4.358 12.9988 6.556C12.9988 8.754 14.5668 10.098 16.5128 10.098ZM16.5128 9.426C14.9448 9.426 13.6708 8.348 13.6708 6.556C13.6708 4.764 14.9448 3.602 16.5128 3.602C18.0808 3.602 19.3548 4.764 19.3548 6.556C19.3548 8.348 18.0808 9.426 16.5128 9.426ZM27.8499 10V3.07H27.1639V6.92C27.1639 8.348 26.1699 9.426 24.7419 9.44C23.2439 9.454 22.2779 8.614 22.2779 7.046V3.07H21.5919V7.06C21.5919 8.978 22.8659 10.112 24.7139 10.112C25.6799 10.098 26.6459 9.706 27.1779 8.754V10H27.8499ZM31.8987 10H32.6547L35.5527 3.084H34.7967L32.2767 9.202L29.7567 3.084H29.0007L31.8987 10ZM39.808 10.098C40.914 10.098 42.118 9.65 42.79 8.768L42.3 8.376C41.782 9.062 40.718 9.426 39.808 9.426C38.38 9.426 37.134 8.488 36.994 6.864H43.224C43.49 4.162 41.754 2.972 39.808 2.972C37.862 2.972 36.294 4.47 36.294 6.542C36.294 8.74 37.862 10.098 39.808 10.098ZM36.994 6.262C37.148 4.568 38.38 3.602 39.808 3.602C41.474 3.602 42.594 4.554 42.608 6.262H36.994ZM44.7885 3.7H48.9745L44.5645 9.762V10H49.9965V9.356H45.6285L49.9965 3.35V3.084H44.7885V3.7ZM61.5238 10V3.07H60.8378V6.92C60.8378 8.348 59.8438 9.426 58.4158 9.44C56.9178 9.454 55.9518 8.614 55.9518 7.046V3.07H55.2658V7.06C55.2658 8.978 56.5398 10.112 58.3878 10.112C59.3538 10.098 60.3198 9.706 60.8518 8.754V10H61.5238ZM63.3325 3.084V10H64.0185V6.15C64.0185 4.722 65.0125 3.644 66.4405 3.63C67.9385 3.616 68.9045 4.456 68.9045 6.024V10H69.5905V6.01C69.5905 4.092 68.3165 2.958 66.4685 2.958C65.5025 2.972 64.5365 3.364 64.0045 4.316V3.084H63.3325ZM83.9207 10H84.6627V0.199999H83.7387L80.0287 5.912L76.2767 0.199999C75.9127 0.199999 75.7447 0.199999 75.3807 0.199999V10H76.1367V1.292L79.9167 7.032H80.1687L83.9207 1.292V10ZM89.8197 10.098C90.9257 10.098 92.1297 9.65 92.8017 8.768L92.3117 8.376C91.7937 9.062 90.7297 9.426 89.8197 9.426C88.3917 9.426 87.1457 8.488 87.0057 6.864H93.2357C93.5017 4.162 91.7657 2.972 89.8197 2.972C87.8737 2.972 86.3057 4.47 86.3057 6.542C86.3057 8.74 87.8737 10.098 89.8197 10.098ZM87.0057 6.262C87.1597 4.568 88.3917 3.602 89.8197 3.602C91.4857 3.602 92.6057 4.554 92.6197 6.262H87.0057ZM98.1322 3.63C99.7282 3.63 100.96 4.806 100.96 6.528C100.96 8.25 99.7562 9.44 98.1322 9.44C96.5782 9.44 95.3042 8.46 95.3042 6.542C95.3042 4.596 96.5782 3.63 98.1322 3.63ZM100.974 0.199999V4.596C100.414 3.476 99.2942 2.972 98.1042 2.972C96.1722 2.972 94.6322 4.26 94.6322 6.542C94.6322 8.838 96.1582 10.112 98.0902 10.112C99.2662 10.112 100.4 9.524 100.974 8.474V10H101.646V0.199999H100.974ZM106.896 10.098C108.002 10.098 109.206 9.65 109.878 8.768L109.388 8.376C108.87 9.062 107.806 9.426 106.896 9.426C105.468 9.426 104.222 8.488 104.082 6.864H110.312C110.578 4.162 108.842 2.972 106.896 2.972C104.95 2.972 103.382 4.47 103.382 6.542C103.382 8.74 104.95 10.098 106.896 10.098ZM104.082 6.262C104.236 4.568 105.468 3.602 106.896 3.602C108.562 3.602 109.682 4.554 109.696 6.262H104.082ZM117.294 8.572C116.734 9.132 115.978 9.426 115.236 9.426C113.668 9.426 112.352 8.404 112.352 6.542C112.352 4.68 113.668 3.658 115.236 3.658C115.978 3.658 116.748 3.924 117.308 4.484L117.756 4.05C117.056 3.364 116.146 3.014 115.236 3.014C113.234 3.014 111.68 4.358 111.68 6.542C111.68 8.726 113.29 10.07 115.236 10.07C116.146 10.07 117.056 9.734 117.756 9.034L117.294 8.572ZM119.841 3.056V10H119.155V3.056H119.841ZM118.959 0.83C118.959 1.558 120.065 1.558 120.065 0.83C120.065 0.102 118.959 0.102 118.959 0.83ZM121.807 3.084V10H122.493V6.15C122.493 4.722 123.487 3.644 124.915 3.63C126.413 3.616 127.379 4.456 127.379 6.024V10H128.065V6.01C128.065 4.092 126.791 2.958 124.943 2.958C123.977 2.972 123.011 3.364 122.479 4.316V3.084H121.807ZM138.881 3.896C138.195 3.252 137.313 2.972 136.305 2.972C134.905 2.958 133.547 3.546 133.561 4.904C133.575 6.29 134.905 6.542 136.249 6.766C137.383 6.948 138.531 7.144 138.503 8.138C138.461 9.23 137.187 9.454 136.347 9.454C135.423 9.454 134.387 9.104 133.813 8.278L133.309 8.726C133.911 9.65 135.115 10.112 136.333 10.112C137.551 10.112 139.133 9.706 139.175 8.18C139.245 6.57 137.551 6.36 136.319 6.15C135.451 5.996 134.247 5.814 134.219 4.89C134.191 4.008 135.227 3.602 136.305 3.616C137.075 3.616 137.761 3.728 138.461 4.344L138.881 3.896ZM144.216 9.468C142.634 9.468 141.416 8.25 141.416 6.556C141.416 4.862 142.606 3.644 144.216 3.644C145.784 3.644 147.044 4.596 147.044 6.542C147.044 8.488 145.784 9.468 144.216 9.468ZM141.36 12.884V8.404C141.948 9.552 143.04 10.126 144.216 10.126C146.162 10.126 147.73 8.866 147.73 6.542C147.73 4.316 146.246 3.056 144.37 2.986C143.026 2.986 141.92 3.672 141.374 4.722V3.084H140.702V12.884H141.36ZM152.533 10.098C150.587 10.098 149.019 8.74 149.019 6.542C149.019 4.47 150.587 2.972 152.533 2.972C154.479 2.972 156.215 4.162 155.949 6.864H149.719C149.859 8.488 151.105 9.426 152.533 9.426C153.443 9.426 154.507 9.062 155.025 8.376L155.515 8.768C154.843 9.65 153.639 10.098 152.533 10.098ZM149.719 6.262H155.333C155.319 4.554 154.199 3.602 152.533 3.602C151.105 3.602 149.873 4.568 149.719 6.262ZM152.729 1.922L154.017 0.199999V0.186H153.107L152.057 1.866V1.922H152.729ZM162.931 8.572C162.371 9.132 161.615 9.426 160.873 9.426C159.305 9.426 157.989 8.404 157.989 6.542C157.989 4.68 159.305 3.658 160.873 3.658C161.615 3.658 162.385 3.924 162.945 4.484L163.393 4.05C162.693 3.364 161.783 3.014 160.873 3.014C158.871 3.014 157.317 4.358 157.317 6.542C157.317 8.726 158.927 10.07 160.873 10.07C161.783 10.07 162.693 9.734 163.393 9.034L162.931 8.572ZM165.477 3.056V10H164.791V3.056H165.477ZM164.595 0.83C164.595 1.558 165.701 1.558 165.701 0.83C165.701 0.102 164.595 0.102 164.595 0.83ZM173.408 3.084V4.596C172.834 3.518 171.7 3 170.58 3C168.648 3 167.066 4.428 167.066 6.542C167.066 8.656 168.648 10.112 170.58 10.112C171.7 10.112 172.736 9.608 173.408 8.53V10H174.094C174.094 7.69 174.094 5.394 174.094 3.084H173.408ZM170.58 3.658C174.43 3.658 174.43 9.44 170.58 9.44C169.012 9.44 167.752 8.278 167.752 6.542C167.752 4.806 169.012 3.658 170.58 3.658ZM175.961 0.199999V10H176.647V0.199999H175.961ZM179.245 3.056V10H178.559V3.056H179.245ZM178.363 0.83C178.363 1.558 179.469 1.558 179.469 0.83C179.469 0.102 178.363 0.102 178.363 0.83ZM186.377 3.896C185.691 3.252 184.809 2.972 183.801 2.972C182.401 2.958 181.043 3.546 181.057 4.904C181.071 6.29 182.401 6.542 183.745 6.766C184.879 6.948 186.027 7.144 185.999 8.138C185.957 9.23 184.683 9.454 183.843 9.454C182.919 9.454 181.883 9.104 181.309 8.278L180.805 8.726C181.407 9.65 182.611 10.112 183.829 10.112C185.047 10.112 186.629 9.706 186.671 8.18C186.741 6.57 185.047 6.36 183.815 6.15C182.947 5.996 181.743 5.814 181.715 4.89C181.687 4.008 182.723 3.602 183.801 3.616C184.571 3.616 185.257 3.728 185.957 4.344L186.377 3.896ZM189.108 1.068V3.084H187.638V3.658H189.108V7.872C189.108 9.23 189.584 10.098 191.054 10.098C191.488 10.098 191.922 9.958 192.356 9.748L192.118 9.188C191.768 9.356 191.39 9.468 191.054 9.468C189.976 9.468 189.78 8.81 189.78 7.872V3.658H192.132V3.084H189.78V0.998L189.108 1.068ZM196.83 10.098C197.936 10.098 199.14 9.65 199.812 8.768L199.322 8.376C198.804 9.062 197.74 9.426 196.83 9.426C195.402 9.426 194.156 8.488 194.016 6.864H200.246C200.512 4.162 198.776 2.972 196.83 2.972C194.884 2.972 193.316 4.47 193.316 6.542C193.316 8.74 194.884 10.098 196.83 10.098ZM194.016 6.262C194.17 4.568 195.402 3.602 196.83 3.602C198.496 3.602 199.616 4.554 199.63 6.262H194.016ZM201.88 9.58C201.88 9.846 202.034 10.014 202.216 10.084L201.782 11.246H202.384L202.944 9.818C202.972 9.734 202.986 9.664 202.986 9.58C202.986 8.852 201.88 8.852 201.88 9.58ZM214.895 10V3.07H214.209V6.92C214.209 8.348 213.215 9.426 211.787 9.44C210.289 9.454 209.323 8.614 209.323 7.046V3.07H208.637V7.06C208.637 8.978 209.911 10.112 211.759 10.112C212.725 10.098 213.691 9.706 214.223 8.754V10H214.895ZM216.704 3.084V10H217.39V6.15C217.39 4.722 218.384 3.644 219.812 3.63C221.31 3.616 222.276 4.456 222.276 6.024V10H222.962V6.01C222.962 4.092 221.688 2.958 219.84 2.958C218.874 2.972 217.908 3.364 217.376 4.316V3.084H216.704ZM236.508 10V0.199999H235.752V4.862H229.508V0.199999H228.752V10H229.508V5.548H235.752V10H236.508ZM241.73 10.098C239.784 10.098 238.216 8.754 238.216 6.556C238.216 4.358 239.784 2.958 241.73 2.958C243.676 2.958 245.244 4.358 245.244 6.556C245.244 8.754 243.676 10.098 241.73 10.098ZM241.73 9.426C243.298 9.426 244.572 8.348 244.572 6.556C244.572 4.764 243.298 3.602 241.73 3.602C240.162 3.602 238.888 4.764 238.888 6.556C238.888 8.348 240.162 9.426 241.73 9.426ZM239.56 1.894V1.992H240.302L241.828 0.647999L243.354 1.992H244.096V1.894L242.108 0.0459996H241.548L239.56 1.894ZM250.337 9.468C248.755 9.468 247.537 8.25 247.537 6.556C247.537 4.862 248.727 3.644 250.337 3.644C251.905 3.644 253.165 4.596 253.165 6.542C253.165 8.488 251.905 9.468 250.337 9.468ZM247.481 12.884V8.404C248.069 9.552 249.161 10.126 250.337 10.126C252.283 10.126 253.851 8.866 253.851 6.542C253.851 4.316 252.367 3.056 250.491 2.986C249.147 2.986 248.041 3.672 247.495 4.722V3.084H246.823V12.884H247.481ZM256.218 3.056V10H255.532V3.056H256.218ZM255.336 0.83C255.336 1.558 256.442 1.558 256.442 0.83C256.442 0.102 255.336 0.102 255.336 0.83ZM259.094 1.068V3.084H257.624V3.658H259.094V7.872C259.094 9.23 259.57 10.098 261.04 10.098C261.474 10.098 261.908 9.958 262.342 9.748L262.104 9.188C261.754 9.356 261.376 9.468 261.04 9.468C259.962 9.468 259.766 8.81 259.766 7.872V3.658H262.118V3.084H259.766V0.998L259.094 1.068ZM269.658 3.084V4.596C269.084 3.518 267.95 3 266.83 3C264.898 3 263.316 4.428 263.316 6.542C263.316 8.656 264.898 10.112 266.83 10.112C267.95 10.112 268.986 9.608 269.658 8.53V10H270.344C270.344 7.69 270.344 5.394 270.344 3.084H269.658ZM266.83 3.658C270.68 3.658 270.68 9.44 266.83 9.44C265.262 9.44 264.002 8.278 264.002 6.542C264.002 4.806 265.262 3.658 266.83 3.658ZM272.211 0.199999V10H272.897V0.199999H272.211ZM3.962 24.098C5.908 24.098 7.476 22.754 7.476 20.556C7.476 18.358 5.908 16.958 3.962 16.958C2.016 16.958 0.448 18.358 0.448 20.556C0.448 22.754 2.016 24.098 3.962 24.098ZM3.962 23.426C2.394 23.426 1.12 22.348 1.12 20.556C1.12 18.764 2.394 17.602 3.962 17.602C5.53 17.602 6.804 18.764 6.804 20.556C6.804 22.348 5.53 23.426 3.962 23.426ZM15.2992 24V17.07H14.6132V20.92C14.6132 22.348 13.6192 23.426 12.1912 23.44C10.6932 23.454 9.72716 22.614 9.72716 21.046V17.07H9.04116V21.06C9.04116 22.978 10.3152 24.112 12.1632 24.112C13.1292 24.098 14.0952 23.706 14.6272 22.754V24H15.2992ZM27.2074 24V17.07H26.5214V20.92C26.5214 22.348 25.5274 23.426 24.0994 23.44C22.6014 23.454 21.6354 22.614 21.6354 21.046V17.07H20.9494V21.06C20.9494 22.978 22.2234 24.112 24.0714 24.112C25.0374 24.098 26.0034 23.706 26.5354 22.754V24H27.2074ZM29.0161 17.084V24H29.7021V20.15C29.7021 18.722 30.6961 17.644 32.1241 17.63C33.6221 17.616 34.5881 18.456 34.5881 20.024V24H35.2741V20.01C35.2741 18.092 34.0001 16.958 32.1521 16.958C31.1861 16.972 30.2201 17.364 29.6881 18.316V17.084H29.0161ZM40.1908 24.098C41.2968 24.098 42.5008 23.65 43.1728 22.768L42.6828 22.376C42.1648 23.062 41.1008 23.426 40.1908 23.426C38.7628 23.426 37.5168 22.488 37.3768 20.864H43.6068C43.8728 18.162 42.1368 16.972 40.1908 16.972C38.2448 16.972 36.6768 18.47 36.6768 20.542C36.6768 22.74 38.2448 24.098 40.1908 24.098ZM37.3768 20.262C37.5308 18.568 38.7628 17.602 40.1908 17.602C41.8568 17.602 42.9768 18.554 42.9908 20.262H37.3768ZM53.6608 14.9C56.9228 14.9 56.9228 19.926 53.6608 19.926H50.1188V14.9H53.6608ZM53.6608 20.612C57.9168 20.612 57.9168 14.2 53.6608 14.2C52.2328 14.2 50.7908 14.2 49.3628 14.2V24H50.1188V20.612H53.6608ZM58.397 14.2V24H59.083V20.206C59.083 18.764 60.091 17.644 61.547 17.644C63.101 17.644 63.773 18.61 63.773 20.038V24H64.445V20.038C64.445 18.232 63.479 16.986 61.547 16.986C60.581 17 59.615 17.378 59.055 18.372V14.2H58.397ZM72.1949 17.084V18.596C71.6209 17.518 70.4869 17 69.3669 17C67.4349 17 65.8529 18.428 65.8529 20.542C65.8529 22.656 67.4349 24.112 69.3669 24.112C70.4869 24.112 71.5229 23.608 72.1949 22.53V24H72.8809C72.8809 21.69 72.8809 19.394 72.8809 17.084H72.1949ZM69.3669 17.658C73.2169 17.658 73.2169 23.44 69.3669 23.44C67.7989 23.44 66.5389 22.278 66.5389 20.542C66.5389 18.806 67.7989 17.658 69.3669 17.658ZM74.7485 17.084V24H75.4345V19.968C75.4345 18.708 76.4285 17.672 77.7165 17.658C78.1225 17.658 78.5285 17.756 78.8925 17.98L79.2005 17.42C78.7385 17.14 78.2345 17 77.7165 17.014C76.8345 17.014 75.8545 17.378 75.4205 18.316L75.3925 17.084H74.7485ZM91.1649 24V19.856C91.1649 18.134 89.9609 16.944 88.2669 16.944C87.2029 16.944 86.1249 17.518 85.7049 18.652C85.2989 17.42 84.1929 16.944 83.1429 16.944C82.2469 16.944 81.3649 17.322 80.8889 18.232L80.8749 17.084H80.2309V24H80.9169V19.898C80.9169 18.568 81.8129 17.602 83.1289 17.602C84.4449 17.602 85.3549 18.568 85.3549 19.898V24H86.0409V19.898C86.0409 18.568 86.9509 17.588 88.2669 17.588C89.5829 17.588 90.4789 18.526 90.4789 19.856V24H91.1649ZM99.0602 17.084V18.596C98.4862 17.518 97.3522 17 96.2322 17C94.3002 17 92.7182 18.428 92.7182 20.542C92.7182 22.656 94.3002 24.112 96.2322 24.112C97.3522 24.112 98.3882 23.608 99.0602 22.53V24H99.7462C99.7462 21.69 99.7462 19.394 99.7462 17.084H99.0602ZM96.2322 17.658C100.082 17.658 100.082 23.44 96.2322 23.44C94.6642 23.44 93.4042 22.278 93.4042 20.542C93.4042 18.806 94.6642 17.658 96.2322 17.658ZM106.972 22.572C106.412 23.132 105.656 23.426 104.914 23.426C103.346 23.426 102.03 22.404 102.03 20.542C102.03 18.68 103.346 17.658 104.914 17.658C105.656 17.658 106.426 17.924 106.986 18.484L107.434 18.05C106.734 17.364 105.824 17.014 104.914 17.014C102.912 17.014 101.358 18.358 101.358 20.542C101.358 22.726 102.968 24.07 104.914 24.07C105.824 24.07 106.734 23.734 107.434 23.034L106.972 22.572ZM109.519 17.056V24H108.833V17.056H109.519ZM108.637 14.83C108.637 15.558 109.743 15.558 109.743 14.83C109.743 14.102 108.637 14.102 108.637 14.83ZM114.607 24.098C115.713 24.098 116.917 23.65 117.589 22.768L117.099 22.376C116.581 23.062 115.517 23.426 114.607 23.426C113.179 23.426 111.933 22.488 111.793 20.864H118.023C118.289 18.162 116.553 16.972 114.607 16.972C112.661 16.972 111.093 18.47 111.093 20.542C111.093 22.74 112.661 24.098 114.607 24.098ZM111.793 20.262C111.947 18.568 113.179 17.602 114.607 17.602C116.273 17.602 117.393 18.554 117.407 20.262H111.793ZM126.845 24.098C128.791 24.098 130.359 22.754 130.359 20.556C130.359 18.358 128.791 16.958 126.845 16.958C124.899 16.958 123.331 18.358 123.331 20.556C123.331 22.754 124.899 24.098 126.845 24.098ZM126.845 23.426C125.277 23.426 124.003 22.348 124.003 20.556C124.003 18.764 125.277 17.602 126.845 17.602C128.413 17.602 129.687 18.764 129.687 20.556C129.687 22.348 128.413 23.426 126.845 23.426ZM138.182 24V17.07H137.496V20.92C137.496 22.348 136.502 23.426 135.074 23.44C133.576 23.454 132.61 22.614 132.61 21.046V17.07H131.924V21.06C131.924 22.978 133.198 24.112 135.046 24.112C136.012 24.098 136.978 23.706 137.51 22.754V24H138.182ZM150.09 24V17.07H149.404V20.92C149.404 22.348 148.41 23.426 146.982 23.44C145.484 23.454 144.518 22.614 144.518 21.046V17.07H143.832V21.06C143.832 22.978 145.106 24.112 146.954 24.112C147.92 24.098 148.886 23.706 149.418 22.754V24H150.09ZM151.899 17.084V24H152.585V20.15C152.585 18.722 153.579 17.644 155.007 17.63C156.505 17.616 157.471 18.456 157.471 20.024V24H158.157V20.01C158.157 18.092 156.883 16.958 155.035 16.958C154.069 16.972 153.103 17.364 152.571 18.316V17.084H151.899ZM163.074 24.098C164.18 24.098 165.384 23.65 166.056 22.768L165.566 22.376C165.048 23.062 163.984 23.426 163.074 23.426C161.646 23.426 160.4 22.488 160.26 20.864H166.49C166.756 18.162 165.02 16.972 163.074 16.972C161.128 16.972 159.56 18.47 159.56 20.542C159.56 22.74 161.128 24.098 163.074 24.098ZM160.26 20.262C160.414 18.568 161.646 17.602 163.074 17.602C164.74 17.602 165.86 18.554 165.874 20.262H160.26ZM173.016 19.352C174.192 19.352 175.2 19.352 176.376 19.352C177.692 19.352 179.078 19.898 179.092 21.424C179.092 22.978 177.51 23.272 176.278 23.272H173.016V19.352ZM173.016 14.844H176.278C177.496 14.844 178.784 15.446 178.784 16.874C178.784 18.274 177.552 18.638 176.376 18.638H173.016V14.844ZM176.278 14.2C174.85 14.2 173.674 14.2 172.26 14.2V24C173.688 24 174.85 24 176.278 24C177.958 24 179.834 23.454 179.834 21.438C179.834 20.304 179.134 19.31 177.902 18.974C178.882 18.666 179.498 17.882 179.498 16.874C179.498 15.012 177.93 14.2 176.278 14.2ZM187.476 17.084V18.596C186.902 17.518 185.768 17 184.648 17C182.716 17 181.134 18.428 181.134 20.542C181.134 22.656 182.716 24.112 184.648 24.112C185.768 24.112 186.804 23.608 187.476 22.53V24H188.162C188.162 21.69 188.162 19.394 188.162 17.084H187.476ZM184.648 17.658C188.498 17.658 188.498 23.44 184.648 23.44C183.08 23.44 181.82 22.278 181.82 20.542C181.82 18.806 183.08 17.658 184.648 17.658ZM190.03 17.084V24H190.716V20.15C190.716 18.722 191.71 17.644 193.138 17.63C194.636 17.616 195.602 18.456 195.602 20.024V24H196.288V20.01C196.288 18.092 195.014 16.958 193.166 16.958C192.2 16.972 191.234 17.364 190.702 18.316V17.084H190.03ZM201.233 23.468C199.665 23.468 198.405 22.488 198.405 20.542C198.405 18.596 199.665 17.644 201.233 17.644C202.843 17.644 204.033 18.862 204.033 20.556C204.033 22.25 202.815 23.468 201.233 23.468ZM204.747 26.884V17.084H204.075V18.722C203.529 17.672 202.423 16.986 201.079 16.986C199.203 17.056 197.719 18.316 197.719 20.542C197.719 22.866 199.287 24.126 201.233 24.126C202.409 24.126 203.501 23.552 204.089 22.404V26.884H204.747ZM212.803 24V17.07H212.117V20.92C212.117 22.348 211.123 23.426 209.695 23.44C208.197 23.454 207.231 22.614 207.231 21.046V17.07H206.545V21.06C206.545 22.978 207.819 24.112 209.667 24.112C210.633 24.098 211.599 23.706 212.131 22.754V24H212.803ZM217.734 24.098C218.84 24.098 220.044 23.65 220.716 22.768L220.226 22.376C219.708 23.062 218.644 23.426 217.734 23.426C216.306 23.426 215.06 22.488 214.92 20.864H221.15C221.416 18.162 219.68 16.972 217.734 16.972C215.788 16.972 214.22 18.47 214.22 20.542C214.22 22.74 215.788 24.098 217.734 24.098ZM214.92 20.262C215.074 18.568 216.306 17.602 217.734 17.602C219.4 17.602 220.52 18.554 220.534 20.262H214.92ZM229.902 17.63C231.498 17.63 232.73 18.806 232.73 20.528C232.73 22.25 231.526 23.44 229.902 23.44C228.348 23.44 227.074 22.46 227.074 20.542C227.074 18.596 228.348 17.63 229.902 17.63ZM232.744 14.2V18.596C232.184 17.476 231.064 16.972 229.874 16.972C227.942 16.972 226.402 18.26 226.402 20.542C226.402 22.838 227.928 24.112 229.86 24.112C231.036 24.112 232.17 23.524 232.744 22.474V24H233.416V14.2H232.744ZM238.665 24.098C239.771 24.098 240.975 23.65 241.647 22.768L241.157 22.376C240.639 23.062 239.575 23.426 238.665 23.426C237.237 23.426 235.991 22.488 235.851 20.864H242.081C242.347 18.162 240.611 16.972 238.665 16.972C236.719 16.972 235.151 18.47 235.151 20.542C235.151 22.74 236.719 24.098 238.665 24.098ZM235.851 20.262C236.005 18.568 237.237 17.602 238.665 17.602C240.331 17.602 241.451 18.554 241.465 20.262H235.851ZM252.877 17.896C252.191 17.252 251.309 16.972 250.301 16.972C248.901 16.958 247.543 17.546 247.557 18.904C247.571 20.29 248.901 20.542 250.245 20.766C251.379 20.948 252.527 21.144 252.499 22.138C252.457 23.23 251.183 23.454 250.343 23.454C249.419 23.454 248.383 23.104 247.809 22.278L247.305 22.726C247.907 23.65 249.111 24.112 250.329 24.112C251.547 24.112 253.129 23.706 253.171 22.18C253.241 20.57 251.547 20.36 250.315 20.15C249.447 19.996 248.243 19.814 248.215 18.89C248.187 18.008 249.223 17.602 250.301 17.616C251.071 17.616 251.757 17.728 252.457 18.344L252.877 17.896ZM260.662 17.084V18.596C260.088 17.518 258.954 17 257.834 17C255.902 17 254.32 18.428 254.32 20.542C254.32 22.656 255.902 24.112 257.834 24.112C258.954 24.112 259.99 23.608 260.662 22.53V24H261.348C261.348 21.69 261.348 19.394 261.348 17.084H260.662ZM257.834 17.658C261.684 17.658 261.684 23.44 257.834 23.44C256.266 23.44 255.006 22.278 255.006 20.542C255.006 18.806 256.266 17.658 257.834 17.658ZM263.215 17.084V24H263.901V20.15C263.901 18.722 264.895 17.644 266.323 17.63C267.821 17.616 268.787 18.456 268.787 20.024V24H269.473V20.01C269.473 18.092 268.199 16.958 266.351 16.958C265.385 16.972 264.419 17.364 263.887 18.316V17.084H263.215ZM276.154 17.588C275.622 17.21 274.894 16.958 274.194 16.958C272.402 16.958 270.946 18.176 270.946 20.332C270.946 22.18 272.192 23.678 274.194 23.678C275.482 23.678 276.812 24.266 276.812 25.75C276.812 27.22 275.58 27.836 274.194 27.836C272.808 27.836 271.604 27.164 271.604 25.75H270.918C270.918 27.5 272.36 28.508 274.194 28.508C276.028 28.508 277.484 27.612 277.484 25.75C277.484 24.56 276.812 23.706 275.594 23.272C276.742 22.754 277.456 21.536 277.456 20.332C277.456 19.212 277.092 18.512 276.602 17.98L277.274 17.196L276.826 16.804L276.154 17.588ZM274.194 17.644C275.622 17.644 276.784 18.582 276.784 20.332C276.784 21.76 275.622 22.992 274.194 22.992C272.612 22.992 271.632 21.76 271.632 20.332C271.632 18.526 272.78 17.644 274.194 17.644Z" fill="black"/>
</svg>
