<svg width="25" height="28" viewBox="0 0 25 28" fill="none" xmlns="http://www.w3.org/2000/svg">
<path d="M22.8752 14.162C22.2721 13.7527 21.5905 13.5684 20.9109 13.5684V0.838357C20.9109 0.375795 20.6035 0 20.2262 0H0.684731C0.306931 0 0 0.375795 0 0.838357V21.955C0 22.4151 0.306931 22.7942 0.684731 22.7942H12.3733C12.5431 22.7942 12.6922 22.7066 12.8112 22.5845C14.4969 25.2055 17.465 27.5413 17.8971 27.8707C18.0092 27.9605 18.1349 28 18.2609 28C18.3868 28 18.5146 27.9605 18.6273 27.8707C19.1942 27.4351 24.1862 23.5072 24.7945 20.1191C24.9318 19.6107 25 19.0907 25 18.5647C24.9988 16.7291 24.1865 15.0435 22.8752 14.162ZM1.36946 21.1103V11.6873H6.62591L8.47189 18.7185C8.56329 19.0653 8.82623 19.2999 9.12363 19.2999C9.13047 19.2999 9.13854 19.2999 9.14636 19.2999C9.45207 19.2861 9.71477 19.0276 9.78759 18.6641L11.8261 8.67799L12.2208 12.0557C12.2687 12.4679 12.5575 12.7752 12.8984 12.7752H17.3406C17.7182 12.7752 18.0254 12.3994 18.0254 11.9372C18.0254 11.4746 17.7182 11.0985 17.3406 11.0985H13.4918L12.6868 4.20675C12.6401 3.81061 12.373 3.50901 12.0441 3.48717C11.6937 3.46832 11.4239 3.73192 11.3447 4.12237L9.0403 15.4097L7.77445 10.592C7.68428 10.2449 7.42011 10.0091 7.12345 10.0091H1.368V1.67163H19.5417V13.8437C19.0764 14.0364 18.6356 14.3161 18.2592 14.7033C17.0027 13.4176 15.0971 13.1708 13.6433 14.1563C12.3332 15.042 11.5202 16.7291 11.5202 18.5597C11.5202 19.0931 11.5893 19.6218 11.7074 20.0332C11.7719 20.3884 11.8911 20.7486 12.0378 21.1133H1.36946V21.1103ZM23.4756 19.6694C23.0797 21.8583 19.8584 24.8614 18.259 26.1593C16.6603 24.8626 13.438 21.855 13.0241 19.5838C12.9353 19.2619 12.8892 18.9175 12.8892 18.5623C12.8892 17.3413 13.4312 16.2211 14.3058 15.6284C14.7073 15.3567 15.1608 15.2125 15.6208 15.2125C16.4409 15.2125 17.2094 15.6577 17.7314 16.4305C17.8634 16.6187 18.0545 16.7318 18.259 16.7318C18.4643 16.7318 18.6581 16.6205 18.7859 16.4273C19.603 15.2206 21.0979 14.8702 22.2093 15.6281C23.0851 16.2205 23.6296 17.341 23.6296 18.5638C23.6296 18.91 23.5853 19.2538 23.4756 19.6694Z" fill="white"/>
</svg>
