<svg width="33" height="25" viewBox="0 0 33 25" fill="none" xmlns="http://www.w3.org/2000/svg">
<path d="M19.7227 4.05273C19.3669 4.05273 19.0781 4.27148 19.0781 4.54102C19.0781 4.81055 19.3669 5.0293 19.7227 5.0293C20.0784 5.0293 20.3672 4.81055 20.3672 4.54102C20.3672 4.27148 20.0784 4.05273 19.7227 4.05273Z" fill="white"/>
<path d="M13.2773 4.05273C12.9216 4.05273 12.6328 4.27148 12.6328 4.54102C12.6328 4.81055 12.9216 5.0293 13.2773 5.0293C13.6331 5.0293 13.9219 4.81055 13.9219 4.54102C13.9219 4.27148 13.6331 4.05273 13.2773 4.05273Z" fill="white"/>
<path d="M30.4943 14.5938C31.0475 13.9648 31.3242 13.18 31.3242 12.5C31.3242 11.4748 30.7231 10.5223 29.6915 9.87642C29.9198 9.46313 30.0352 9.0333 30.0352 8.59375C30.0352 7.23364 28.9874 5.96665 27.4296 5.375C27.666 3.88994 26.3887 2.52871 24.4957 2.18149C23.7548 0.883984 22.1058 0 20.3672 0C18.7488 0 17.2972 0.715137 16.5 1.75859C15.7027 0.715137 14.2512 0 12.6328 0C10.8941 0 9.24503 0.883984 8.50427 2.18154C6.6 2.53096 5.33466 3.89897 5.57036 5.375C4.01266 5.9666 2.96484 7.23364 2.96484 8.59375C2.96484 9.0333 3.08021 9.46313 3.30851 9.87642C2.27694 10.5224 1.67578 11.4748 1.67578 12.5C1.67578 13.1836 1.95486 13.9674 2.50574 14.5938C1.96743 15.1695 1.67578 15.8518 1.67578 16.5527C1.67578 17.4617 2.16227 18.3276 3.02279 18.9706C2.58038 20.9966 4.71313 23.0469 7.47656 23.0469C7.49654 23.0469 7.5162 23.0466 7.53547 23.0462C8.45167 24.2436 10.1523 25 11.9883 25C13.9018 25 15.6116 24.1299 16.5 22.8763C17.3884 24.1299 19.0982 25 21.0117 25C22.8477 25 24.5483 24.2436 25.4645 23.0462C25.4839 23.0466 25.5035 23.0469 25.5234 23.0469C27.969 23.0469 30.0352 21.4146 30.0352 19.4824C30.0352 19.3179 30.0161 19.1487 29.9772 18.9706C30.8377 18.3276 31.3242 17.4618 31.3242 16.5527C31.3242 15.8518 31.0326 15.1695 30.4943 14.5938ZM15.8555 7.39165C15.476 7.2249 15.0358 7.12891 14.5664 7.12891C14.2104 7.12891 13.9219 7.34751 13.9219 7.61719C13.9219 7.88687 14.2104 8.10547 14.5664 8.10547C15.2772 8.10547 15.8555 8.54355 15.8555 9.08203V18.3676C14.9099 17.5551 13.5272 17.041 11.9883 17.041C11.6323 17.041 11.3438 17.2596 11.3438 17.5293C11.3438 17.799 11.6323 18.0176 11.9883 18.0176C14.1206 18.0176 15.8555 19.3318 15.8555 20.9473C15.8555 22.6147 14.0845 24.0234 11.9883 24.0234C10.4961 24.0234 9.12237 23.3549 8.48854 22.3203C8.37169 22.1296 8.10704 22.0172 7.83112 22.0407C7.78555 22.0447 7.74024 22.0493 7.69493 22.054C5.86059 22.244 3.79487 20.6704 4.35407 18.9101C4.41149 18.7292 4.32835 18.5395 4.1397 18.4206C3.39307 17.9499 2.96484 17.2691 2.96484 16.5527C2.96484 16.1098 3.13017 15.6764 3.4378 15.2963C4.21085 15.7763 5.17243 16.0645 6.1875 16.0645C6.54347 16.0645 6.83203 15.8458 6.83203 15.5762C6.83203 15.3065 6.54347 15.0879 6.1875 15.0879C4.43831 15.0879 2.96484 13.8784 2.96484 12.5C2.96484 11.6638 3.52745 10.8946 4.46995 10.4423C4.76031 10.3029 4.85525 10.0155 4.68568 9.78896C4.39918 9.4062 4.25391 9.00405 4.25391 8.59375C4.25391 7.27588 5.672 6.00586 7.47656 6.00586C9.19334 6.00586 10.6992 7.21519 10.6992 8.59375C10.6992 8.86343 10.9878 9.08203 11.3438 9.08203C11.6997 9.08203 11.9883 8.86343 11.9883 8.59375C11.9883 6.66162 9.92217 5.0293 7.47656 5.0293C7.26077 5.0293 7.04614 5.04253 6.83364 5.06758C6.83332 5.05474 6.83203 5.04224 6.83203 5.0293C6.83203 3.9396 7.99973 3.07617 9.41016 3.07617C10.0986 3.07617 10.7463 3.27935 11.2337 3.64819C11.4855 3.83877 11.8935 3.83857 12.1452 3.64785C12.3967 3.45703 12.3965 3.1479 12.1447 2.95732C11.5567 2.51235 10.813 2.22856 10.007 2.13452C10.5754 1.49531 11.5206 0.976562 12.6328 0.976562C14.3496 0.976562 15.8555 2.18584 15.8555 3.56445V7.39165ZM26.8125 16.0645C27.8276 16.0645 28.7892 15.7762 29.5623 15.2964C29.8698 15.6765 30.0352 16.1099 30.0352 16.5527C30.0352 17.2691 29.6069 17.9499 28.8604 18.4206C28.6717 18.5395 28.5886 18.7293 28.646 18.9101C28.7143 19.125 28.7461 19.3069 28.7461 19.4824C28.7461 20.998 26.9366 22.2229 25.3051 22.054C25.2598 22.0493 25.2144 22.0446 25.1689 22.0407C24.8926 22.017 24.6282 22.1296 24.5115 22.3203C23.8777 23.3549 22.5039 24.0234 21.0117 24.0234C18.9155 24.0234 17.1445 22.6147 17.1445 20.9473C17.1445 19.3318 18.8794 18.0176 21.0117 18.0176C21.3676 18.0176 21.6562 17.799 21.6562 17.5293C21.6562 17.2596 21.3676 17.041 21.0117 17.041C19.4728 17.041 18.0901 17.5551 17.1445 18.3676V9.08203C17.1445 8.54355 17.7228 8.10547 18.4336 8.10547C18.7895 8.10547 19.0781 7.88687 19.0781 7.61719C19.0781 7.34751 18.7895 7.12891 18.4336 7.12891C17.9642 7.12891 17.524 7.2249 17.1445 7.39165V3.56445C17.1445 2.18584 18.6504 0.976562 20.3672 0.976562C21.4794 0.976562 22.4245 1.49531 22.9929 2.13447C22.187 2.22852 21.4434 2.5123 20.8553 2.95728C20.6034 3.14785 20.6031 3.45698 20.8547 3.6478C21.1063 3.83862 21.5145 3.83877 21.7662 3.64819C22.2538 3.27935 22.9014 3.07617 23.5898 3.07617C25.0074 3.07617 26.168 3.94468 26.168 5.0293C26.168 5.04219 26.1667 5.05474 26.1664 5.06758C25.9539 5.04253 25.7392 5.0293 25.5234 5.0293C23.0778 5.0293 21.0117 6.66162 21.0117 8.59375C21.0117 8.86343 21.3003 9.08203 21.6562 9.08203C22.0122 9.08203 22.3008 8.86343 22.3008 8.59375C22.3008 7.21519 23.8067 6.00586 25.5234 6.00586C27.327 6.00586 28.7461 7.27524 28.7461 8.59375C28.7461 9.00405 28.6008 9.4062 28.3143 9.78896C28.1448 10.0155 28.2397 10.3029 28.5301 10.4423C29.4725 10.8946 30.0352 11.6638 30.0352 12.5C30.0352 13.8833 28.5565 15.0879 26.8125 15.0879C26.4566 15.0879 26.168 15.3065 26.168 15.5762C26.168 15.8458 26.4566 16.0645 26.8125 16.0645Z" fill="white"/>
<path d="M14.4022 10.4518C14.1649 10.2508 13.7575 10.2336 13.4922 10.4134C11.4253 11.8141 8.12109 10.6947 8.12109 8.59375C8.12109 8.32407 7.83254 8.10547 7.47656 8.10547C7.12059 8.10547 6.83203 8.32407 6.83203 8.59375C6.83203 10.2888 8.46959 11.699 10.609 11.9657C10.3608 12.5579 9.62839 12.9883 8.76562 12.9883C8.40965 12.9883 8.12109 13.2069 8.12109 13.4766C8.12109 13.7462 8.40965 13.9648 8.76562 13.9648C10.3355 13.9648 11.646 13.1099 11.9304 11.9823C12.8268 11.8935 13.6704 11.6029 14.3516 11.1413C14.6169 10.9615 14.6396 10.6528 14.4022 10.4518Z" fill="white"/>
<path d="M7.47656 18.9941C7.12059 18.9941 6.83203 19.2127 6.83203 19.4824C6.83203 19.7521 7.12059 19.9707 7.47656 19.9707C9.19334 19.9707 10.6992 21.18 10.6992 22.5586C10.6992 22.8283 10.9878 23.0469 11.3438 23.0469C11.6997 23.0469 11.9883 22.8283 11.9883 22.5586C11.9883 20.6265 9.92217 18.9941 7.47656 18.9941Z" fill="white"/>
<path d="M12.6328 15.0879C10.4487 15.0879 8.57353 15.9954 7.58611 17.3148C7.4106 17.5495 7.51934 17.8475 7.82897 17.9804C8.13867 18.1134 8.53196 18.0311 8.70753 17.7964C9.47678 16.7683 10.9364 16.0645 12.6328 16.0645C12.9888 16.0645 13.2773 15.8458 13.2773 15.5762C13.2773 15.3065 12.9888 15.0879 12.6328 15.0879Z" fill="white"/>
<path d="M24.2344 12.9883C23.3716 12.9883 22.6392 12.5579 22.391 11.9657C24.5304 11.699 26.168 10.2888 26.168 8.59375C26.168 8.32407 25.8794 8.10547 25.5234 8.10547C25.1675 8.10547 24.8789 8.32407 24.8789 8.59375C24.8789 9.93994 23.4332 11.0352 21.6563 11.0352C20.8625 11.0352 20.0995 10.8144 19.5078 10.4134C19.2426 10.2336 18.8351 10.2508 18.5978 10.4518C18.3604 10.6528 18.3831 10.9615 18.6484 11.1413C19.3296 11.6029 20.1733 11.8935 21.0696 11.9823C21.354 13.1099 22.6645 13.9648 24.2344 13.9648C24.5903 13.9648 24.8789 13.7462 24.8789 13.4766C24.8789 13.2069 24.5903 12.9883 24.2344 12.9883Z" fill="white"/>
<path d="M25.5234 18.9941C23.0778 18.9941 21.0117 20.6265 21.0117 22.5586C21.0117 22.8283 21.3003 23.0469 21.6562 23.0469C22.0122 23.0469 22.3008 22.8283 22.3008 22.5586C22.3008 21.18 23.8067 19.9707 25.5234 19.9707C25.8793 19.9707 26.168 19.7521 26.168 19.4824C26.168 19.2127 25.8793 18.9941 25.5234 18.9941Z" fill="white"/>
<path d="M25.4139 17.3149C24.4289 15.9985 22.5563 15.0879 20.3672 15.0879C20.0113 15.0879 19.7227 15.3065 19.7227 15.5762C19.7227 15.8459 20.0113 16.0645 20.3672 16.0645C22.0624 16.0645 23.5231 16.7681 24.2923 17.7964C24.4681 18.0314 24.8617 18.1133 25.1709 17.9805C25.4806 17.8475 25.5893 17.5495 25.4139 17.3149Z" fill="white"/>
</svg>
