<svg width="30" height="29" viewBox="0 0 30 29" fill="none" xmlns="http://www.w3.org/2000/svg">
<path d="M22.6153 2.66171C22.2919 2.66171 22.0294 2.91546 22.0294 3.22812C22.0294 3.54077 22.2919 3.79452 22.6153 3.79452C22.9387 3.79452 23.2012 3.54077 23.2012 3.22812C23.2012 2.91546 22.9388 2.66171 22.6153 2.66171Z" fill="black"/>
<path d="M23.1517 0.45307C19.4771 -0.68597 16.4061 0.588667 14.9982 1.3741C13.5903 0.588497 10.5199 -0.686197 6.84434 0.45307C1.97685 1.96237 -0.305196 8.83297 3.59755 14.3767C5.44659 17.0021 5.6935 19.0272 5.95489 21.1712C6.14626 22.7407 6.34413 24.3636 7.17065 26.2609C7.72647 27.5365 8.51215 28.9956 9.67459 28.9955C9.68508 28.9955 9.6958 28.9953 9.70635 28.9951C10.6411 28.9738 11.3944 28.0776 12.1486 26.0892C12.5328 25.0757 12.7789 23.8796 13.017 22.7231C13.4455 20.6413 13.8886 18.4887 15.0023 18.4812C15.0043 18.4812 15.0063 18.4812 15.0083 18.4812C16.1098 18.4812 16.5519 20.6345 16.9795 22.7169C17.2177 23.8771 17.464 25.077 17.8482 26.0894C18.6033 28.0808 19.3565 28.9784 20.2904 28.9997C20.301 28.9999 20.3115 29 20.3221 29C21.4822 29 22.2689 27.5386 22.8256 26.2609C23.6154 24.4477 23.8223 22.8288 24.0224 21.2632C24.3041 19.059 24.5702 16.977 26.403 14.3707C30.3515 8.75538 27.9375 1.93609 23.1517 0.45307ZM25.4338 13.7338C23.4418 16.5664 23.1457 18.8835 22.8593 21.1244C22.6602 22.6818 22.4722 24.1529 21.7455 25.8211C20.8832 27.8001 20.3832 27.8671 20.3199 27.8671C20.3192 27.8671 20.3187 27.8671 20.3181 27.8671C20.2955 27.8666 19.7564 27.83 18.9484 25.6993C18.5957 24.7697 18.3585 23.614 18.129 22.4964C17.8714 21.2418 17.6282 20.0567 17.2271 19.1317C16.714 17.9482 15.9683 17.3482 15.0102 17.3482C15.0049 17.3482 14.9994 17.3482 14.9941 17.3483C14.032 17.3548 13.2834 17.9594 12.7693 19.1453C12.3684 20.0698 12.1252 21.2513 11.8678 22.502C11.6384 23.6163 11.4013 24.7685 11.0484 25.6994C10.242 27.8256 9.70154 27.8621 9.67893 27.8627C9.62643 27.8636 9.12053 27.8171 8.25088 25.8213C7.48876 24.0717 7.30911 22.5985 7.11897 21.0387C6.85255 18.8535 6.57704 16.594 4.56657 13.7394C1.04832 8.74195 3.16906 2.78258 7.20241 1.5319C10.7098 0.444687 13.6045 1.85702 14.6862 2.51478C14.8768 2.63073 15.1194 2.63078 15.31 2.51484C16.3921 1.85724 19.2875 0.445027 22.794 1.53196C26.9072 2.80643 28.8809 8.83161 25.4338 13.7338Z" fill="white"/>
<path d="M25.6097 5.86382C25.4194 5.32976 25.1671 4.83835 24.8601 4.40318C24.6777 4.14467 24.3131 4.07812 24.0458 4.25444C23.7785 4.43071 23.7096 4.78307 23.892 5.04152C24.1403 5.39331 24.3454 5.79416 24.5018 6.23278C25.0856 7.87105 24.9333 9.78261 24.0838 11.4774C23.9426 11.7589 24.0643 12.0976 24.3555 12.2341C24.6468 12.3705 24.9972 12.2529 25.1383 11.9714C26.122 10.0092 26.2938 7.78303 25.6097 5.86382Z" fill="white"/>
<path d="M12.8688 7.74825L10.51 6.98819L9.72372 4.70801C9.64397 4.47675 9.42002 4.32071 9.16784 4.32071C8.91565 4.32071 8.69176 4.47669 8.61196 4.70801L7.82569 6.98819L5.46689 7.74825C5.22765 7.82534 5.06622 8.04182 5.06622 8.2856C5.06622 8.52938 5.22759 8.7458 5.46689 8.82295L7.82569 9.58301L8.61196 11.8632C8.69171 12.0944 8.91565 12.2505 9.16784 12.2505C9.42002 12.2505 9.64391 12.0945 9.72372 11.8632L10.51 9.58301L12.8688 8.82295C13.108 8.74586 13.2695 8.52938 13.2695 8.2856C13.2695 8.04182 13.1081 7.82539 12.8688 7.74825ZM9.86147 8.59786C9.68651 8.65421 9.54917 8.78692 9.49086 8.95611L9.16784 9.89294L8.84481 8.95611C8.78651 8.78698 8.64923 8.65421 8.47421 8.59786L7.50507 8.2856L8.47421 7.97334C8.64917 7.91698 8.78651 7.78427 8.84481 7.61509L9.16784 6.67825L9.49086 7.61509C9.54917 7.78422 9.68645 7.91698 9.86147 7.97334L10.8306 8.2856L9.86147 8.59786Z" fill="white"/>
</svg>
