<svg width="36" height="35" viewBox="0 0 36 35" fill="none" xmlns="http://www.w3.org/2000/svg">
<path d="M26.4472 30.5715H24.6779C23.5518 30.5715 22.5113 30.1279 21.7485 29.3221C21.0188 28.5514 20.6339 27.5787 20.7108 26.3716L21.019 21.6604C21.1982 21.7651 21.383 21.8451 21.565 21.9363C21.9679 22.1378 22.3907 22.3487 23.0796 22.5471C23.1261 23.4989 23.5613 24.9041 25.0273 25.233C25.6766 25.3785 25.8802 24.4357 25.2501 24.2942C24.4152 24.1071 24.1685 23.3189 24.097 22.7688C24.7892 22.8788 25.3436 22.8796 25.3504 22.8797C25.6243 22.8797 25.846 22.6641 25.846 22.3982C25.846 22.1323 25.6243 21.9168 25.3504 21.9168L25.3366 21.9164C23.0937 21.8872 20.9688 20.7647 19.3588 19.1113C18.5616 18.2929 17.2104 18.2929 16.4131 19.1113C13.5014 22.1017 10.5199 21.8956 10.4213 21.9168C10.1478 21.9168 9.92595 22.1323 9.92595 22.3984C9.92595 22.6641 10.1478 22.8801 10.4213 22.8801C10.4372 22.8789 10.9383 22.8859 11.6384 22.7779C11.5656 23.3271 11.3167 24.1083 10.4866 24.2942C9.85655 24.4357 10.0596 25.3786 10.7094 25.233C12.1705 24.9054 12.6068 23.5087 12.6561 22.5571C13.0652 22.4412 13.467 22.291 13.8629 22.1126C13.8695 22.1101 14.7057 21.6885 14.819 21.6209C15.1828 27.1603 15.1228 26.2798 15.1318 26.3807C15.323 28.6263 13.5082 30.5712 11.1636 30.5712H9.58911C9.31547 30.5712 9.09351 30.7872 9.09351 31.0529C9.09351 31.3192 9.31547 31.5347 9.58911 31.5347H11.1636C14.0655 31.5347 16.3563 29.1209 16.1193 26.3059L15.7686 20.9636C16.2349 20.6098 16.693 20.2251 17.1324 19.7735C17.3295 19.5712 17.5971 19.4599 17.8861 19.4599C18.6038 19.4599 18.5418 19.8802 20.0681 21.0203L19.722 26.3059C19.609 27.6475 20.0819 28.9844 21.0197 29.9745C21.9583 30.9661 23.2916 31.5347 24.6779 31.5347H26.4472C26.7208 31.5347 26.9425 31.3192 26.9425 31.0529C26.9425 30.7872 26.7208 30.5715 26.4472 30.5715Z" fill="white"/>
<path d="M34.7635 29.4615C33.729 21.9495 32.7518 14.8544 27.9556 11.7643C27.3203 11.3548 26.5785 11.1384 25.8106 11.1384C23.8353 11.1384 20.7811 12.5965 20.6093 14.6109L20.5 15.8945C20.1381 15.3845 19.8675 15.0102 19.8675 14.3917V3.56053C19.8675 3.29436 19.6457 3.07882 19.3721 3.07882C19.0985 3.07882 18.8767 3.29436 18.8767 3.56053V14.3917C18.8767 14.9215 19.0271 15.4386 19.3116 15.8874C19.6584 16.4348 20.1778 17.107 20.5156 17.4829C21.277 18.33 21.9935 18.8594 22.7214 19.2566C22.7559 19.2754 22.7884 19.3049 22.8235 19.323C22.8434 19.3366 22.9524 19.3876 22.9915 19.3973C23.6933 19.7383 24.5949 19.99 25.3705 19.99C25.4435 19.99 25.496 19.9429 25.5589 19.9147C25.6118 19.8915 25.6763 19.8912 25.717 19.8516C26.0291 19.5538 25.8179 19.0325 25.3769 19.0269C25.1396 19.0237 24.9066 18.9746 24.6728 18.9331C25.1265 18.6246 25.5863 18.1268 25.813 17.3115C25.8844 17.0545 25.7281 16.7903 25.4641 16.7206C25.1998 16.6515 24.928 16.8033 24.8565 17.0599C24.5289 18.238 23.5503 18.4283 23.2832 18.46C22.5661 18.0845 21.9372 17.5709 21.4001 16.9963L21.5971 14.6903C21.7163 13.2866 24.27 12.1016 25.8106 12.1016C26.3831 12.1016 26.9359 12.2626 27.4082 12.5672C31.829 15.4158 32.7774 22.3004 33.7813 29.5892L33.7978 29.7077C33.8282 29.9289 33.7617 30.143 33.6108 30.3105C33.4594 30.479 33.2497 30.5715 33.02 30.5715H28.6271C28.3532 30.5715 28.1315 30.7872 28.1315 31.0531C28.1315 31.3192 28.3532 31.5348 28.6271 31.5348H33.02C33.5322 31.5348 34.0191 31.3198 34.3564 30.945C34.6935 30.5704 34.8476 30.073 34.7801 29.5798L34.7635 29.4615Z" fill="white"/>
<path d="M8.43334 12.5672C8.90581 12.2626 9.458 12.1016 10.0311 12.1016C11.5714 12.1016 14.1248 13.2866 14.2446 14.6903L14.435 16.9239C14.2631 17.1107 14.0865 17.2616 13.9115 17.4234C13.4855 17.8167 13.6706 17.7226 12.8925 18.2137C12.7623 18.2958 12.6344 18.3989 12.5026 18.4683C12.3039 18.4508 11.2239 18.2966 10.8798 17.0599C10.8084 16.8033 10.5365 16.6516 10.2723 16.7206C10.0082 16.7903 9.85181 17.0545 9.92333 17.3115C10.1506 18.1281 10.6113 18.6263 11.0658 18.935C10.8425 18.9724 10.6208 19.0238 10.3949 19.0269C9.95599 19.0325 9.7413 19.5531 10.055 19.8519C10.0859 19.8814 10.1364 19.8786 10.1745 19.8994C10.2528 19.9425 10.3142 19.9915 10.4084 19.99C11.1327 19.9805 12.3096 19.6637 12.9237 19.3474C14.4237 18.5747 15.6606 17.1522 16.4612 15.8879C16.745 15.4395 16.8949 14.9228 16.8949 14.3938V3.56053C16.8949 3.29436 16.6731 3.07882 16.3997 3.07882C16.1259 3.07882 15.9042 3.29436 15.9042 3.56053V14.3938C15.9042 15.1703 15.4572 15.5797 15.3298 15.7629L15.2319 14.6109C15.0601 12.5965 12.0061 11.1384 10.0308 11.1384C9.26261 11.1384 8.52085 11.3547 7.88551 11.7643C2.79445 15.0449 1.94628 23.1574 1.06148 29.5802C0.919101 30.6143 1.74838 31.5348 2.82116 31.5348H6.74848C7.02213 31.5348 7.24382 31.3192 7.24382 31.0531C7.24382 30.7872 7.02213 30.5715 6.74848 30.5715H2.82116C2.59193 30.5715 2.38187 30.479 2.23076 30.311C1.9431 29.9915 2.06195 29.6432 2.05983 29.5891C3.06374 22.3003 4.01212 15.4157 8.43334 12.5672Z" fill="white"/>
</svg>
