<svg width="84" height="79" viewBox="0 0 84 79" fill="none" xmlns="http://www.w3.org/2000/svg">
<g clip-path="url(#clip0)">
<path d="M32.445 69.125C32.4766 70.44 32.2286 71.7478 31.7154 72.9714C31.2022 74.1951 30.4343 75.31 29.4567 76.2507C28.4791 77.1914 27.3115 77.9389 26.0225 78.4493C24.7334 78.9598 23.349 79.2229 21.9503 79.2233C20.5517 79.2236 19.1671 78.9611 17.8778 78.4513C16.5885 77.9414 15.4205 77.1944 14.4424 76.2542C13.4642 75.314 12.6957 74.1994 12.1819 72.976C11.6681 71.7526 11.4193 70.445 11.4503 69.1299C11.5109 66.5498 12.6432 64.0945 14.6047 62.2897C16.5661 60.4848 19.201 59.4739 21.9451 59.4733C24.6892 59.4726 27.3245 60.4823 29.287 62.2862C31.2494 64.0901 32.383 66.5449 32.445 69.125V69.125Z" fill="white"/>
<path d="M73.5 69.125C73.5317 70.44 73.2836 71.7478 72.7704 72.9714C72.2573 74.1951 71.4893 75.31 70.5117 76.2507C69.5341 77.1914 68.3665 77.9389 67.0775 78.4493C65.7885 78.9598 64.404 79.2229 63.0053 79.2233C61.6067 79.2236 60.2221 78.9611 58.9328 78.4513C57.6435 77.9414 56.4755 77.1944 55.4974 76.2542C54.5193 75.314 53.7507 74.1994 53.2369 72.976C52.7231 71.7526 52.4744 70.445 52.5053 69.1299C52.5659 66.5498 53.6982 64.0945 55.6597 62.2897C57.6212 60.4848 60.256 59.4739 63.0001 59.4733C65.7442 59.4726 68.3796 60.4823 70.342 62.2862C72.3044 64.0901 73.438 66.5449 73.5 69.125V69.125Z" fill="white"/>
<path d="M26.25 29.625H21V34.5625H15.75V39.5H21V44.4375H26.25V39.5H31.5V34.5625H26.25V29.625Z" fill="white"/>
<path d="M82.74 42.66L66.99 20.2931C65.7902 18.607 64.1672 17.225 62.2644 16.2691C60.3616 15.3132 58.2377 14.8129 56.0805 14.8125H42V9.875C42 8.56549 41.4469 7.30962 40.4623 6.38366C39.4777 5.4577 38.1424 4.9375 36.75 4.9375C35.3576 4.9375 34.0223 5.4577 33.0377 6.38366C32.0531 7.30962 31.5 8.56549 31.5 9.875V14.8125H7.875C5.78642 14.8125 3.78338 15.5928 2.30653 16.9817C0.829685 18.3707 0 20.2545 0 22.2188L0 64.1875H7.1925C8.41298 61.3999 10.4466 58.9937 13.0588 57.2464C15.6709 55.4991 18.7551 54.482 21.9555 54.3125C25.1415 54.4733 28.215 55.4747 30.824 57.2019C33.4331 58.9291 35.4722 61.3124 36.708 64.0789L48.195 64.1826C49.4155 61.395 51.4491 58.9887 54.0613 57.2415C56.6734 55.4942 59.7576 54.4771 62.958 54.3076C66.1955 54.3086 69.3541 55.247 72.0048 56.9951C74.6554 58.7433 76.6695 61.2166 77.7735 64.0789L84.0052 64.1826V46.5557C84.0036 45.1572 83.5595 43.7907 82.7295 42.6304L82.74 42.66ZM36.33 40.0925C35.8011 42.2339 34.6737 44.2036 33.0643 45.7981C31.4549 47.3925 29.422 48.5537 27.1756 49.1618C24.9292 49.7699 22.5509 49.8027 20.2866 49.2568C18.0222 48.711 15.9539 47.6063 14.2955 46.0569C12.6371 44.5076 11.4488 42.5698 10.8533 40.4439C10.2579 38.318 10.2769 36.0811 10.9085 33.9644C11.5401 31.8478 12.7613 29.9281 14.4459 28.404C16.1305 26.8798 18.2174 25.8065 20.4908 25.2948C22.6778 24.7726 24.9716 24.7939 27.1472 25.3567C29.3228 25.9194 31.3056 27.0042 32.9011 28.5048C34.4966 30.0053 35.6501 31.8701 36.2485 33.9162C36.8468 35.9623 36.8695 38.1196 36.3142 40.1764L36.33 40.0925ZM52.5 39.5V24.6875H57.0098C58.9443 24.6871 60.8493 25.1335 62.5575 25.9875C64.2656 26.8415 65.7246 28.0771 66.8063 29.5855L73.7625 39.5H52.5Z" fill="white"/>
</g>
<defs>
<clipPath id="clip0">
<rect width="84" height="79" fill="white"/>
</clipPath>
</defs>
</svg>
