<svg width="84" height="79" viewBox="0 0 84 79" fill="none" xmlns="http://www.w3.org/2000/svg">
<path d="M34.1094 24.737C33.4298 24.737 32.8789 25.255 32.8789 25.8943V27.1313C32.8789 27.7705 33.4298 28.2885 34.1094 28.2885C34.7889 28.2885 35.3398 27.7705 35.3398 27.1313V25.8943C35.3398 25.2552 34.7887 24.737 34.1094 24.737Z" fill="white"/>
<path d="M49.8908 24.737C49.2111 24.737 48.6603 25.255 48.6603 25.8943V27.1313C48.6603 27.7705 49.2111 28.2885 49.8908 28.2885C50.5705 28.2885 51.1213 27.7705 51.1213 27.1313V25.8943C51.1213 25.2552 50.5703 24.737 49.8908 24.737Z" fill="white"/>
<path d="M46.8214 33.7397C46.3443 33.2844 45.5652 33.2798 45.0815 33.7286C44.6323 34.1452 43.5557 34.6319 42.0001 34.6319C40.4445 34.6319 39.3681 34.1452 38.9189 33.7286C38.4349 33.2795 37.6558 33.2846 37.1788 33.7396C36.7016 34.1946 36.7068 34.9272 37.1905 35.376C38.2501 36.3592 40.0481 36.9463 42.0001 36.9463C43.9519 36.9463 45.7499 36.3592 46.8096 35.376C47.2934 34.9274 47.2986 34.1946 46.8214 33.7397Z" fill="white"/>
<path d="M35.4243 21.0265H32.7943C32.1147 21.0265 31.5638 21.5445 31.5638 22.1837C31.5638 22.823 32.1147 23.341 32.7943 23.341H35.4245C36.1041 23.341 36.655 22.823 36.655 22.1837C36.655 21.5445 36.1039 21.0265 35.4243 21.0265Z" fill="white"/>
<path d="M51.2059 21.0265H48.5757C47.896 21.0265 47.3452 21.5445 47.3452 22.1837C47.3452 22.823 47.8961 23.341 48.5757 23.341H51.2059C51.8856 23.341 52.4364 22.823 52.4364 22.1837C52.4364 21.5445 51.8856 21.0265 51.2059 21.0265Z" fill="white"/>
<path d="M68.353 55.1205L59.484 52.5561C59.4984 52.3042 59.4787 52.0493 59.4155 51.7975C59.2213 51.0243 58.6768 50.377 57.9213 50.0217L52.4364 47.4426V43.7645C56.54 41.0804 59.4282 36.8612 60.1504 31.999H60.8818C63.2799 31.999 65.3369 30.3232 65.5646 28.1835C65.6922 26.9845 65.2752 25.7875 64.4204 24.8992C64.0068 24.4692 63.5069 24.129 62.9575 23.8912V11.0521C62.9575 6.32197 58.8658 2.47367 53.8361 2.47367C53.8297 2.47367 53.7441 2.47367 53.6281 2.47383C51.4128 0.93704 48.1583 0 44.5481 0C36.862 0 33.3309 1.50593 29.2425 3.24963C27.0583 4.18111 24.8 5.14423 21.5989 6.02464C21.2629 6.11706 20.9845 6.33971 20.8337 6.63704C20.6829 6.93422 20.6739 7.27783 20.8089 7.58164C20.8463 7.66589 21.3961 8.86616 22.8144 10.3243C22.202 11.0332 21.0427 12.8464 21.0427 16.4117V23.9427C19.6268 24.5777 18.5934 25.8353 18.4358 27.3152C18.308 28.5142 18.7248 29.7114 19.5796 30.6C20.4348 31.489 21.6563 31.9988 22.9307 31.9988H23.8491C24.5707 36.8625 27.459 41.0822 31.5636 43.7661V47.4425L26.0786 50.0215C25.3231 50.377 24.7784 51.0243 24.5843 51.7975C24.5211 52.0491 24.5016 52.304 24.5159 52.556L15.6469 55.1204C11.7945 56.2344 9.20615 59.5294 9.20615 63.32V77.8423C9.20615 78.4816 9.75706 78.9995 10.4366 78.9995C11.1162 78.9995 11.6671 78.4816 11.6671 77.8423V63.3201C11.6671 60.5524 13.5571 58.1463 16.3702 57.3328L25.5956 54.6654L27.2239 56.7073L25.3739 58.4473C24.1969 59.5541 23.9062 61.2384 24.6506 62.6386L28.173 69.2639H24.8187V67.9475C24.8187 67.3082 24.2678 66.7903 23.5883 66.7903C22.9087 66.7903 22.3578 67.3082 22.3578 67.9475V69.2639H17.0125C16.333 69.2639 15.7821 69.7819 15.7821 70.4212V77.8423C15.7821 78.4816 16.333 78.9995 17.0125 78.9995H30.164C30.8436 78.9995 31.3945 78.4816 31.3945 77.8423V75.3233L33.0089 78.36C33.2244 78.7655 33.6589 78.9999 34.1104 78.9999C34.2953 78.9999 34.4829 78.9604 34.6596 78.8773C35.2675 78.5914 35.5139 77.8965 35.2099 77.3247L26.8518 61.6033C26.5819 61.0957 26.6874 60.4851 27.1141 60.0836L29.7189 57.6337C30.1519 57.2265 30.2006 56.5819 29.8333 56.1212L27.0455 52.6256C26.9529 52.5092 26.9645 52.39 26.9798 52.3292C26.995 52.2682 27.0413 52.1567 27.1796 52.0916L32.026 49.8126L35.4473 60.8446C35.6376 61.4584 36.3204 61.8102 36.9731 61.6317C37.6255 61.4527 38.0001 60.8104 37.8098 60.1967L37.2705 58.4578C38.7835 58.9523 40.3833 59.2097 42.0004 59.2097C43.6182 59.2097 45.2173 58.9531 46.73 58.4586L42.0002 73.7092L39.3448 65.1467C39.1544 64.5329 38.4715 64.1806 37.819 64.3596C37.1665 64.5386 36.792 65.1811 36.9823 65.7946L40.819 78.166C40.9722 78.6598 41.4534 78.9992 42.0002 78.9992C42.5471 78.9992 43.0284 78.6598 43.1815 78.166L51.9747 49.8126L56.8209 52.0916C56.9594 52.1567 57.0055 52.2684 57.0209 52.329C57.0362 52.39 57.0478 52.5092 56.9551 52.6256L54.1674 56.1212C53.8001 56.5817 53.8488 57.2265 54.2816 57.6339L56.8865 60.0838C57.3134 60.4851 57.4186 61.0958 57.1489 61.6033L48.7903 77.3248C48.4863 77.8965 48.7327 78.5916 49.3405 78.8775C49.5172 78.9607 49.7051 79 49.89 79C50.3413 79 50.7759 78.7655 50.9915 78.3601L59.3496 62.6388C60.0939 61.2387 59.8034 59.5544 58.6266 58.4475L56.7763 56.7073L58.4044 54.6655L67.63 57.3331C70.443 58.1464 72.3329 60.5525 72.3329 63.3204V77.8423C72.3329 78.4816 72.8837 78.9995 73.5634 78.9995C74.2431 78.9995 74.7939 78.4816 74.7939 77.8423V63.3201C74.7937 59.5296 72.2055 56.2344 68.353 55.1205ZM28.9332 76.6851H18.2427V71.5784H22.3575V71.658C22.3575 72.2972 22.9084 72.8152 23.5879 72.8152C24.2675 72.8152 24.8184 72.2972 24.8184 71.658V71.5784H28.9332V76.6851ZM30.2587 5.35747C34.2452 3.65728 37.3939 2.31444 44.5481 2.31444C49.0877 2.31444 53.1443 4.10119 53.9841 6.47071C54.1992 7.07709 54.8955 7.40436 55.5406 7.20254C56.1852 7.00041 56.5336 6.34496 56.3187 5.73873C56.248 5.53907 56.1635 5.34327 56.0679 5.15102C58.6459 6.016 60.4967 8.33414 60.4967 11.0521V23.5004H59.0969C58.325 23.5004 57.6972 22.9099 57.6972 22.1839V20.9469C57.6972 15.5819 53.5671 11.6361 53.3912 11.4707C53.0669 11.1655 52.5886 11.0561 52.1506 11.1854C45.32 13.2141 35.6891 14.9238 28.5987 11.5498C26.0756 10.3491 24.5858 8.82326 23.8022 7.80445C26.4142 6.99717 28.4389 6.13357 30.2587 5.35747ZM49.9756 47.9925L47.6256 55.5703C45.9036 56.4381 43.969 56.8956 42.0002 56.8956C40.0327 56.8956 38.0962 56.4387 36.3751 55.5715L34.0246 47.9925V45.1215C36.4371 46.2228 39.1431 46.8415 42.0001 46.8415C44.8567 46.8415 47.5628 46.2225 49.9756 45.1205V47.9925ZM42.0001 44.5269C33.2513 44.5269 26.1339 37.8329 26.1339 29.6049C26.1339 28.9657 25.5829 28.4477 24.9034 28.4477C24.2239 28.4477 23.6729 28.9657 23.6729 29.6049V29.6845H22.9307C22.3504 29.6845 21.7941 29.4522 21.4045 29.0471C21.0097 28.6369 20.825 28.1038 20.8844 27.546C20.9879 26.5752 21.9693 25.8146 23.1187 25.8146H24.9034C27.0323 25.8146 28.7641 24.1857 28.7641 22.1838V17.8159C28.7641 17.1767 28.2132 16.6587 27.5336 16.6587C26.8541 16.6587 26.3032 17.1767 26.3032 17.8159V22.1838C26.3032 22.9097 25.6751 23.5002 24.9034 23.5002H23.5036V16.4117C23.5036 13.7191 24.2731 12.3801 24.6284 11.9053C25.3802 12.4629 26.2618 13.0153 27.2938 13.5211C30.0823 14.888 33.4013 15.645 37.1583 15.7709C41.5619 15.9198 46.595 15.1934 52.1273 13.6149C53.1038 14.7271 55.2364 17.5456 55.2364 20.9468V22.1838C55.2364 24.1859 56.9684 25.8146 59.0971 25.8146H61.0698C61.6501 25.8146 62.2064 26.047 62.5961 26.452C62.9908 26.8623 63.1755 27.3953 63.1161 27.953C63.0128 28.924 62.0315 29.6845 60.8821 29.6845H60.3269V29.617C60.3269 28.978 59.7763 28.46 59.0969 28.4597C59.0968 28.4597 59.0966 28.4597 59.0965 28.4597C58.4172 28.4597 57.8665 28.9772 57.866 29.616C57.8593 37.8378 50.7419 44.5269 42.0001 44.5269Z" fill="white"/>
<path d="M66.9878 69.8823H64.9305V67.9475C64.9305 67.3082 64.3797 66.7903 63.7 66.7903C63.0203 66.7903 62.4695 67.3082 62.4695 67.9475V69.8823H60.412C59.7323 69.8823 59.1816 70.4003 59.1816 71.0396C59.1816 71.6788 59.7323 72.1968 60.412 72.1968H62.4695V74.1317C62.4695 74.7709 63.0203 75.2889 63.7 75.2889C64.3797 75.2889 64.9305 74.7709 64.9305 74.1317V72.1968H66.9878C67.6675 72.1968 68.2183 71.6788 68.2183 71.0396C68.2183 70.4003 67.6672 69.8823 66.9878 69.8823Z" fill="white"/>
</svg>
