<svg width="67" height="79" viewBox="0 0 67 79" fill="none" xmlns="http://www.w3.org/2000/svg">
<g clip-path="url(#clip0)">
<path d="M77.4697 6.08977C68.8311 -2.0301 54.7797 -2.0301 46.1411 6.08977L27.8767 23.267L48.6132 42.7692C52.8811 39.4267 58.2921 37.3338 64.2668 37.3338C67.6937 37.3338 70.9548 38.0033 73.922 39.1988L77.4697 35.5537C86.1058 27.4315 86.1058 14.2143 77.4697 6.08977Z" fill="white"/>
<path d="M45.1615 46.0695L24.3961 26.5403L6.52015 43.3687C-2.11593 51.4907 -2.11593 64.7081 6.52015 72.8325C15.1585 80.9519 29.3741 81.1068 38.0128 72.9866L41.6366 69.5621C40.3654 66.7715 39.6536 63.7046 39.6536 60.4816C39.6537 55.0068 41.7701 50.0371 45.1615 46.0695Z" fill="white"/>
<path d="M44.5763 60.4817C44.5763 69.9161 52.1056 77.6156 61.8053 78.7665V42.1968C52.1056 43.3477 44.5763 51.047 44.5763 60.4817Z" fill="white"/>
<path d="M66.7278 42.1968V78.7665C76.4275 77.6156 83.9569 69.9161 83.9569 60.4816C83.9569 51.0471 76.4277 43.3477 66.7278 42.1968Z" fill="white"/>
</g>
<defs>
<clipPath id="clip0">
<rect width="84" height="79" fill="white"/>
</clipPath>
</defs>
</svg>
