<svg width="273" height="63" viewBox="0 0 273 63" fill="none" xmlns="http://www.w3.org/2000/svg">
<path d="M0.764 0.799998V26H18.476V21.608H5.516V0.799998H0.764ZM36.1337 10.7C35.1257 8.936 32.8577 7.82 30.4817 7.82C25.2977 7.784 21.2297 10.988 21.2297 17.108C21.2297 23.336 25.1177 26.576 30.3737 26.54C32.3537 26.504 35.1257 25.496 36.1337 23.408L36.3497 26H40.4897V8.252H36.2777L36.1337 10.7ZM30.8777 11.744C37.7897 11.744 37.7897 22.508 30.8777 22.508C27.9617 22.508 25.6217 20.492 25.6217 17.108C25.6217 13.724 27.9617 11.744 30.8777 11.744ZM65.5269 10.088C63.4749 8.288 61.3869 7.748 58.6149 7.748C55.3749 7.748 51.1269 9.188 51.1269 13.292C51.1269 17.324 55.1229 18.548 58.4709 18.8C60.9909 18.944 61.9989 19.448 61.9989 20.672C61.9989 21.968 60.4509 22.832 58.7949 22.796C56.8149 22.76 53.9349 21.716 52.6749 20.312L50.5149 23.444C53.1069 26.144 55.9149 26.612 58.7229 26.612C63.7989 26.612 66.3549 23.912 66.3549 20.78C66.3549 16.064 62.1069 15.308 58.7589 15.092C56.4909 14.948 55.4469 14.3 55.4469 13.148C55.4469 12.032 56.5989 11.384 58.6869 11.384C60.3789 11.384 61.8189 11.78 63.0789 12.968L65.5269 10.088ZM83.1025 10.7C82.0945 8.936 79.8265 7.82 77.4505 7.82C72.2665 7.784 68.1985 10.988 68.1985 17.108C68.1985 23.336 72.0865 26.576 77.3425 26.54C79.3225 26.504 82.0945 25.496 83.1025 23.408L83.3185 26H87.4585V8.252H83.2465L83.1025 10.7ZM77.8465 11.744C84.7585 11.744 84.7585 22.508 77.8465 22.508C74.9305 22.508 72.5905 20.492 72.5905 17.108C72.5905 13.724 74.9305 11.744 77.8465 11.744ZM108.638 26V16.676C108.638 11.096 105.29 7.964 101.114 7.964C98.8823 7.964 97.0823 8.864 95.2823 10.628L94.9943 8.216H91.0703V26H95.4263V16.928C95.4263 14.228 97.2623 11.96 99.9623 11.96C102.77 11.96 104.246 14.012 104.246 16.712V26H108.638ZM113.439 3.716V8.288H110.127V12.068H113.439V19.736C113.439 24.164 115.959 26.36 119.811 26.216C121.143 26.18 122.187 25.964 123.447 25.46L122.223 21.716C121.575 22.04 120.783 22.256 120.099 22.256C118.731 22.256 117.795 21.428 117.795 19.736V12.068H122.727V8.288H117.831V3.248L113.439 3.716ZM143.622 18.692C144.306 11.384 140.598 7.712 134.658 7.712C128.898 7.712 125.226 11.6 125.226 17C125.226 22.688 128.862 26.468 134.982 26.468C137.682 26.468 140.742 25.532 142.614 23.588L139.806 20.816C138.798 21.86 136.674 22.472 135.054 22.472C131.958 22.472 130.05 20.888 129.762 18.692H143.622ZM129.834 15.056C130.482 12.752 132.426 11.6 134.802 11.6C137.322 11.6 139.122 12.752 139.41 15.056H129.834ZM168.216 10.7C167.208 8.936 164.94 7.82 162.564 7.82C157.38 7.784 153.312 10.988 153.312 17.108C153.312 23.336 157.2 26.576 162.456 26.54C164.436 26.504 167.208 25.496 168.216 23.408L168.432 26H172.572V8.252H168.36L168.216 10.7ZM162.96 11.744C169.872 11.744 169.872 22.508 162.96 22.508C160.044 22.508 157.704 20.492 157.704 17.108C157.704 13.724 160.044 11.744 162.96 11.744ZM197.177 8.216L194.729 14.156L192.029 21.572L189.293 14.084L186.845 8.216H182.057L189.653 26.072H194.405L201.965 8.216H197.177ZM212.452 7.892C206.8 7.892 203.272 12.068 203.272 17.144C203.272 22.256 206.728 26.396 212.488 26.396C218.248 26.396 221.74 22.256 221.74 17.144C221.74 12.068 218.104 7.892 212.452 7.892ZM212.488 11.888C215.44 11.888 217.312 14.48 217.312 17.144C217.312 19.844 215.692 22.364 212.488 22.364C209.284 22.364 207.664 19.844 207.664 17.144C207.664 14.48 209.32 11.888 212.488 11.888ZM226.22 3.716V8.288H222.908V12.068H226.22V19.736C226.22 24.164 228.74 26.36 232.592 26.216C233.924 26.18 234.968 25.964 236.228 25.46L235.004 21.716C234.356 22.04 233.564 22.256 232.88 22.256C231.512 22.256 230.576 21.428 230.576 19.736V12.068H235.508V8.288H230.612V3.248L226.22 3.716ZM238.799 8.252V26H243.191V16.64C243.191 13.364 245.315 12.14 247.619 12.14C249.059 12.14 249.887 12.536 250.787 13.292L252.767 9.476C251.795 8.504 250.031 7.784 248.195 7.784C246.395 7.784 244.559 8.108 243.191 10.304L242.867 8.252H238.799ZM272.013 18.692C272.697 11.384 268.989 7.712 263.049 7.712C257.289 7.712 253.617 11.6 253.617 17C253.617 22.688 257.253 26.468 263.373 26.468C266.073 26.468 269.133 25.532 271.005 23.588L268.197 20.816C267.189 21.86 265.065 22.472 263.445 22.472C260.349 22.472 258.441 20.888 258.153 18.692H272.013ZM258.225 15.056C258.873 12.752 260.817 11.6 263.193 11.6C265.713 11.6 267.513 12.752 267.801 15.056H258.225ZM5.516 41.3H12.644C18.692 41.3 18.728 50.228 12.644 50.228H5.516V41.3ZM12.644 36.764C8.684 36.764 4.724 36.8 0.764 36.8V62H5.516V54.584H12.644C24.992 54.584 24.956 36.764 12.644 36.764ZM23.9947 44.252V62H28.3867V52.64C28.3867 49.364 30.5107 48.14 32.8147 48.14C34.2547 48.14 35.0827 48.536 35.9827 49.292L37.9627 45.476C36.9907 44.504 35.2267 43.784 33.3907 43.784C31.5907 43.784 29.7547 44.108 28.3867 46.304L28.0627 44.252H23.9947ZM47.9561 43.892C42.3041 43.892 38.7761 48.068 38.7761 53.144C38.7761 58.256 42.2321 62.396 47.9921 62.396C53.7521 62.396 57.2441 58.256 57.2441 53.144C57.2441 48.068 53.6081 43.892 47.9561 43.892ZM47.9921 47.888C50.9441 47.888 52.8161 50.48 52.8161 53.144C52.8161 55.844 51.1961 58.364 47.9921 58.364C44.7881 58.364 43.1681 55.844 43.1681 53.144C43.1681 50.48 44.8241 47.888 47.9921 47.888ZM67.7364 50.264L64.2444 44.252H58.9884V44.396L64.8204 53L58.6284 61.892V62H63.8844L67.7364 56.06L71.5884 62H76.8444V61.892L70.6524 53L76.4844 44.396V44.252H71.2284L67.7364 50.264ZM83.4765 44.18V62H79.0845V44.18H83.4765ZM78.6885 39.248C78.6885 42.668 83.8725 42.668 83.8725 39.248C83.8725 35.828 78.6885 35.828 78.6885 39.248ZM103.652 62V52.496C103.652 50.156 105.128 48.104 107.504 48.104C109.88 48.104 110.852 50.084 110.852 52.424V62H115.244V52.424C115.244 47.096 112.76 44 107.72 44C105.416 44 103.364 44.72 101.78 47.24C100.772 44.792 98.6477 43.928 96.5237 43.928C94.8317 43.928 92.7797 44.576 91.8437 46.376L91.5197 44.216H87.4517V62H91.8437V52.496C91.8437 50.156 93.2477 48.032 95.6237 48.032C98.0357 48.032 99.2597 50.156 99.2597 52.496V62H103.652ZM124.117 44.18V62H119.725V44.18H124.117ZM119.329 39.248C119.329 42.668 124.513 42.668 124.513 39.248C124.513 35.828 119.329 35.828 119.329 39.248ZM129.892 39.716V44.288H126.58V48.068H129.892V55.736C129.892 60.164 132.412 62.36 136.264 62.216C137.596 62.18 138.64 61.964 139.9 61.46L138.676 57.716C138.028 58.04 137.236 58.256 136.552 58.256C135.184 58.256 134.248 57.428 134.248 55.736V48.068H139.18V44.288H134.284V39.248L129.892 39.716ZM160.075 54.692C160.759 47.384 157.051 43.712 151.111 43.712C145.351 43.712 141.679 47.6 141.679 53C141.679 58.688 145.315 62.468 151.435 62.468C154.135 62.468 157.195 61.532 159.067 59.588L156.259 56.816C155.251 57.86 153.127 58.472 151.507 58.472C148.411 58.472 146.503 56.888 146.215 54.692H160.075ZM146.287 51.056C146.935 48.752 148.879 47.6 151.255 47.6C153.775 47.6 155.575 48.752 155.863 51.056H146.287ZM163.46 44.252V62H167.852V52.64C167.852 49.364 169.976 48.14 172.28 48.14C173.72 48.14 174.548 48.536 175.448 49.292L177.428 45.476C176.456 44.504 174.692 43.784 172.856 43.784C171.056 43.784 169.22 44.108 167.852 46.304L167.528 44.252H163.46ZM178.961 59.732C178.961 63.152 184.145 63.152 184.145 59.732C184.145 56.312 178.961 56.312 178.961 59.732Z" fill="#132569"/>
</svg>
