<svg width="71" height="14" viewBox="0 0 71 14" fill="none" xmlns="http://www.w3.org/2000/svg">
<path d="M11.862 13.018H14.238V0.417999H11.52L7.578 5.836L3.636 0.417999H0.9V13.018H3.276V3.856L7.29 9.346H7.758L11.862 3.874V13.018ZM25.1138 9.346H18.1838C18.3278 10.444 19.2818 11.236 20.8298 11.236C21.6398 11.236 22.7018 10.93 23.2058 10.408L24.6098 11.794C23.6738 12.766 22.1438 13.234 20.7938 13.234C17.7338 13.234 15.9158 11.344 15.9158 8.5C15.9158 5.8 17.7518 3.856 20.6318 3.856C23.6018 3.856 25.4558 5.692 25.1138 9.346ZM18.2198 7.528H23.0078C22.8638 6.376 21.9638 5.8 20.7038 5.8C19.5158 5.8 18.5438 6.376 18.2198 7.528ZM23.2238 0.129999H20.6318L19.2998 2.578V2.686H21.2438L23.2238 0.219999V0.129999ZM31.1079 5.962C32.4939 5.962 33.6819 7.006 33.6819 8.554C33.6819 10.156 32.4939 11.164 31.1079 11.164C29.7039 11.164 28.5879 10.102 28.5879 8.554C28.5879 6.952 29.7039 5.962 31.1079 5.962ZM33.8259 0.417999V5.332C33.3039 4.414 31.8459 3.91 30.9099 3.91C28.3179 3.91 26.3919 5.494 26.3919 8.554C26.3919 11.47 28.3539 13.198 30.9639 13.198C32.0439 13.198 33.1419 12.838 33.8259 11.776L33.9699 13H36.0219V0.417999H33.8259ZM46.9283 9.346C47.2703 5.692 45.4163 3.856 42.4463 3.856C39.5663 3.856 37.7303 5.8 37.7303 8.5C37.7303 11.344 39.5483 13.234 42.6083 13.234C43.9583 13.234 45.4883 12.766 46.4243 11.794L45.0203 10.408C44.5163 10.93 43.4543 11.236 42.6443 11.236C41.0963 11.236 40.1423 10.444 39.9983 9.346H46.9283ZM40.0343 7.528C40.3583 6.376 41.3303 5.8 42.5183 5.8C43.7783 5.8 44.6783 6.376 44.8223 7.528H40.0343ZM54.7584 10.426C54.2184 10.966 53.5164 11.164 52.8144 11.164C51.4464 11.164 50.2944 10.264 50.2944 8.572C50.2944 7.024 51.3744 5.944 52.8504 5.944C53.4624 5.944 54.1104 6.178 54.6324 6.646L56.0184 5.188C55.0464 4.234 54.0744 3.874 52.8144 3.874C50.2404 3.874 48.0984 5.422 48.0984 8.572C48.0984 11.722 50.2404 13.27 52.8144 13.27C54.1284 13.27 55.2084 12.874 56.2344 11.866L54.7584 10.426ZM59.3945 4.09V13H57.1985V4.09H59.3945ZM57.0005 1.624C57.0005 3.334 59.5925 3.334 59.5925 1.624C59.5925 -0.086001 57.0005 -0.086001 57.0005 1.624ZM70.1121 13V8.338C70.1121 5.548 68.4381 3.982 66.3501 3.982C65.2341 3.982 64.3341 4.432 63.4341 5.314L63.2901 4.108H61.3281V13H63.5061V8.464C63.5061 7.114 64.4241 5.98 65.7741 5.98C67.1781 5.98 67.9161 7.006 67.9161 8.356V13H70.1121Z" fill="white"/>
</svg>
