<svg width="84" height="79" viewBox="0 0 84 79" fill="none" xmlns="http://www.w3.org/2000/svg">
<path d="M73.2883 26.0603H56.2882V10.0714C56.2882 4.50811 51.4947 0 45.5794 0H39.3938H38.4183C32.5042 0 27.7083 4.50811 27.7083 10.0714V26.0603H10.7068C4.79615 26.0603 0 30.5699 0 36.1309V42.8672C0 48.429 4.79615 52.9371 10.7068 52.9371H27.7085V68.9265C27.7085 74.4898 32.5045 79 38.4185 79H39.394H45.5796C51.495 79 56.2884 74.4898 56.2884 68.9265V52.9371H73.2886C79.2051 52.9371 83.999 48.429 83.999 42.8672V36.1309C83.9987 30.5699 79.2049 26.0603 73.2883 26.0603ZM55.9324 38.038C55.2868 41.7364 50.59 45.8935 46.8069 49.2408C46.8069 49.2408 44.9192 51.0234 44.3523 51.4803C43.9271 51.8245 43.0012 52.5167 42.0003 52.5167C40.9975 52.5167 40.074 51.8245 39.6465 51.4803C39.0798 51.0232 37.1916 49.2408 37.1916 49.2408C33.4083 45.8935 28.712 41.7384 28.0661 38.038C27.6134 35.4229 28.0552 33.2666 29.3817 31.6294C30.7203 29.9764 32.7569 29.0333 35.6093 28.7461C35.8858 28.7201 36.1337 28.7079 36.3843 28.7079C38.3992 28.7079 40.4368 29.414 41.9985 30.6084C43.5627 29.414 45.598 28.7079 47.6167 28.7079C47.8651 28.7079 48.1155 28.7201 48.3895 28.7461C51.2416 29.0333 53.2767 29.9764 54.6166 31.6294C55.9436 33.2666 56.3851 35.4229 55.9324 38.038Z" fill="white"/>
<path d="M48.3895 28.7461C48.1154 28.72 47.8648 28.7079 47.6167 28.7079C45.598 28.7079 43.5627 29.414 41.9985 30.6083C40.4365 29.414 38.3992 28.7079 36.3843 28.7079C36.1337 28.7079 35.8858 28.72 35.6093 28.7461C32.7571 29.0333 30.7203 29.9764 29.3817 31.6294C28.0552 33.2666 27.6134 35.4231 28.0661 38.038C28.7122 41.7384 33.4082 45.8935 37.1916 49.2408C37.1916 49.2408 39.0796 51.0234 39.6465 51.4803C40.074 51.8245 40.9975 52.5167 42.0003 52.5167C43.0012 52.5167 43.927 51.8245 44.3523 51.4803C44.9189 51.0232 46.8069 49.2408 46.8069 49.2408C50.59 45.8935 55.287 41.7366 55.9324 38.038C56.3851 35.4229 55.9435 33.2666 54.6166 31.6294C53.2769 29.9764 51.2418 29.0333 48.3895 28.7461Z" fill="#FF0000"/>
</svg>
